<?xml version="1.0" encoding="UTF-8" standalone="no"?>
<!-- Created with Inkscape (http://www.inkscape.org/) -->

<svg
   version="1.1"
   id="svg926"
   width="110.01235"
   height="37.268814"
   viewBox="0 0 110.01235 37.268814"
   sodipodi:docname="RESPRO LOGO-exc.svg"
   inkscape:version="1.4 (86a8ad7, 2024-10-11)"
   xml:space="preserve"
   xmlns:inkscape="http://www.inkscape.org/namespaces/inkscape"
   xmlns:sodipodi="http://sodipodi.sourceforge.net/DTD/sodipodi-0.dtd"
   xmlns="http://www.w3.org/2000/svg"
   xmlns:svg="http://www.w3.org/2000/svg"><defs
     id="defs930" /><sodipodi:namedview
     id="namedview928"
     pagecolor="#ffffff"
     bordercolor="#666666"
     borderopacity="1.0"
     inkscape:pageshadow="2"
     inkscape:pageopacity="0.0"
     inkscape:pagecheckerboard="0"
     showgrid="true"
     inkscape:zoom="4.0000001"
     inkscape:cx="64.624998"
     inkscape:cy="-28.124999"
     inkscape:window-width="1920"
     inkscape:window-height="1013"
     inkscape:window-x="-9"
     inkscape:window-y="-9"
     inkscape:window-maximized="1"
     inkscape:current-layer="g472"
     inkscape:showpageshadow="2"
     inkscape:deskcolor="#d1d1d1"><inkscape:grid
       id="grid32"
       units="px"
       originx="0"
       originy="0"
       spacingx="1"
       spacingy="1"
       empcolor="#0099e5"
       empopacity="0.30196078"
       color="#0099e5"
       opacity="0.14901961"
       empspacing="5"
       dotted="false"
       gridanglex="30"
       gridanglez="30"
       visible="true" /></sodipodi:namedview><g
     id="g474"
     transform="translate(-51.708925,-239.92613)"
     inkscape:export-filename="RESPRO LOGO-exc.svg"
     inkscape:export-xdpi="1200"
     inkscape:export-ydpi="1200"><g
       id="g462"
       transform="matrix(1.5569168,0,0,1.5569168,-55.168338,-45.086412)"
       inkscape:export-filename="R1-LOGO+SLOGAN-rev.png"
       inkscape:export-xdpi="1200"
       inkscape:export-ydpi="1200"><path
         d="m 68.672333,183.06215 v 6.83789 0.15235 c 0.008,0.0823 0.0182,0.16434 0.0312,0.24609 0.12484,1.50125 1.12957,2.83322 2.64454,3.50586 0.6589,0.28998 1.38391,0.44166 2.119135,0.44336 0.154802,-0.006 0.529865,0.003 0.529194,-0.007 l -0.0097,-3.94174 v -2.17774 h 0.1905 3.61614 1.19531 c 1.41804,7e-4 2.66942,0.88435 3.08398,2.17774 0.0939,0.2911 0.14193,0.59388 0.14258,0.89844 -6.9e-4,1.69329 -1.43558,3.06795 -3.21094,3.07617 -0.005,6.6e-4 -0.0104,0.001 -0.0156,0.002 -0.005,-6.4e-4 -0.0104,-10e-4 -0.0156,-0.002 h -3.99609 l 2.56055,4.46094 4.74023,8.25781 h 5.87891 l -5.17969,-8.99805 -0.0215,-0.0293 c 2.7271,-1.36974 4.4358,-4.06623 4.43945,-7.00585 -0.002,-3.17344 -1.98715,-6.04031 -5.04688,-7.28711 -0.8165,-0.33264 -1.68361,-0.53837 -2.56835,-0.60938 h -1.11329 z"
         style="fill:#4081f2;fill-opacity:1;stroke:none;stroke-width:0.0100198"
         id="path458"
         sodipodi:nodetypes="cccccccccccccccccccccccccccc" /><path
         d="m 73.484626,199.197 c -2.610995,0.005 -4.749255,1.79249 -4.837885,4.04492 v 0.28516 3.47265 h 2.41602 2.929685 v -7.77929 c -0.16868,-0.0155 -0.33819,-0.0233 -0.50782,-0.0234 z"
         style="fill:#f23d4c;fill-opacity:1;fill-rule:evenodd;stroke:none;stroke-width:0.00985987"
         id="path460" /></g><g
       id="g472"
       transform="translate(0,-1.3629688)"
       style="fill:#4081f2;fill-opacity:1"><g
         aria-label="RESTU"
         id="text466"
         style="font-size:21.3333px;line-height:1.25;letter-spacing:1px;word-spacing:0px"><path
           d="m 86.788047,261.84192 v -14.93331 h 6.826656 q 2.047997,0 3.519994,0.66133 1.493331,0.66133 2.303997,1.92 0.810666,1.23733 0.810666,2.94399 0,1.68533 -0.810666,2.92267 -0.810666,1.21599 -2.303997,1.87733 -1.471997,0.64 -3.519994,0.64 H 89.13471 l 1.87733,-1.77067 v 5.73866 z m 9.237319,0 -3.711995,-5.43999 h 4.501327 l 3.733332,5.43999 z m -5.013326,-5.29066 -1.87733,-1.94133 h 4.223993 q 1.322665,0 1.962664,-0.576 0.661332,-0.576 0.661332,-1.6 0,-1.04533 -0.661332,-1.62133 -0.639999,-0.576 -1.962664,-0.576 H 89.13471 l 1.87733,-1.94133 z"
           style="font-weight:800;font-family:Montserrat;-inkscape-font-specification:'Montserrat Ultra-Bold'"
           id="path494" /><path
           d="m 107.45734,252.68993 h 6.93333 v 3.15733 h -6.93333 z m 0.29867,5.88799 h 7.80799 v 3.264 h -11.98932 v -14.93331 h 11.71198 v 3.26399 h -7.53065 z"
           style="font-weight:800;font-family:Montserrat;-inkscape-font-specification:'Montserrat Ultra-Bold'"
           id="path496" /><path
           d="m 124.15867,262.14059 q -1.83466,0 -3.54132,-0.448 -1.68533,-0.46934 -2.752,-1.19467 l 1.38666,-3.11466 q 1.00267,0.64 2.304,1.06666 1.32267,0.40534 2.624,0.40534 0.87466,0 1.40799,-0.14934 0.53334,-0.17066 0.768,-0.42666 0.256,-0.27733 0.256,-0.64 0,-0.512 -0.46933,-0.81067 -0.46933,-0.29866 -1.216,-0.49066 -0.74666,-0.192 -1.664,-0.384 -0.89599,-0.192 -1.81333,-0.49067 -0.89599,-0.29866 -1.64266,-0.768 -0.74667,-0.49066 -1.216,-1.25866 -0.46933,-0.78933 -0.46933,-1.984 0,-1.344 0.72533,-2.43199 0.74667,-1.088 2.21867,-1.74933 1.47199,-0.66134 3.66932,-0.66134 1.472,0 2.88,0.34134 1.42933,0.32 2.53866,0.95999 l -1.30133,3.136 q -1.06667,-0.576 -2.112,-0.85333 -1.04533,-0.29867 -2.02666,-0.29867 -0.87467,0 -1.408,0.192 -0.53333,0.17067 -0.768,0.46933 -0.23466,0.29867 -0.23466,0.68267 0,0.49066 0.448,0.78933 0.46933,0.27733 1.21599,0.46933 0.768,0.17067 1.664,0.36267 0.91733,0.192 1.81333,0.49067 0.91733,0.27733 1.664,0.76799 0.74666,0.46934 1.19466,1.25867 0.46934,0.768 0.46934,1.94133 0,1.30133 -0.74667,2.41066 -0.72533,1.088 -2.19733,1.74933 -1.45066,0.66134 -3.66933,0.66134 z"
           style="font-weight:800;font-family:Montserrat;-inkscape-font-specification:'Montserrat Ultra-Bold';fill:#4081f2;fill-opacity:1"
           id="path498" /><path
           d="m 136.67864,261.84192 v -11.58398 h -4.58666 v -3.34933 h 13.37598 v 3.34933 h -4.56533 v 11.58398 z"
           style="font-weight:800;font-family:Montserrat;-inkscape-font-specification:'Montserrat Ultra-Bold'"
           id="path500" /><path
           d="m 154.70262,262.14059 q -3.30666,0 -5.16266,-1.81334 -1.85599,-1.81333 -1.85599,-5.14132 v -8.27732 h 4.22399 v 8.14932 q 0,1.92 0.74666,2.752 0.768,0.83199 2.09067,0.83199 1.32266,0 2.06933,-0.83199 0.74666,-0.832 0.74666,-2.752 v -8.14932 h 4.16 v 8.27732 q 0,3.32799 -1.856,5.14132 -1.856,1.81334 -5.16266,1.81334 z"
           style="font-weight:800;font-family:Montserrat;-inkscape-font-specification:'Montserrat Ultra-Bold'"
           id="path502" /></g><g
         aria-label="PRODUCTION"
         id="text470"
         style="font-size:8px;line-height:1.25;letter-spacing:0px"
         transform="matrix(1.1393864,0,0,1.1393864,-12.113903,-37.098369)"><path
           d="m 88.508842,265.39628 q 1.12,0 1.632,0.456 0.512,0.448 0.512,1.256 0,0.48 -0.216,0.896 -0.208,0.416 -0.704,0.68 -0.496,0.256 -1.344,0.256 h -0.616 v 2.168 h -0.864 v -5.712 z m -0.064,0.728 h -0.672 v 2.088 h 0.52 q 0.728,0 1.096,-0.248 0.376,-0.248 0.376,-0.824 0,-0.512 -0.32,-0.76 -0.32,-0.256 -1,-0.256 z"
           style="font-weight:500;font-family:Inter;-inkscape-font-specification:'Inter Medium'"
           id="path505" /><path
           d="m 93.404838,265.39628 q 1.096,0 1.616,0.408 0.528,0.408 0.528,1.24 0,0.44 -0.168,0.744 -0.16,0.296 -0.416,0.488 -0.256,0.184 -0.536,0.296 l 1.6,2.536 h -0.992 l -1.376,-2.312 h -0.992 v 2.312 h -0.864 v -5.712 z m -0.056,0.736 h -0.68 v 1.944 h 0.72 q 0.664,0 0.968,-0.248 0.304,-0.256 0.304,-0.752 0,-0.512 -0.32,-0.728 -0.32,-0.216 -0.992,-0.216 z"
           style="font-weight:500;font-family:Inter;-inkscape-font-specification:'Inter Medium'"
           id="path507" /><path
           d="m 101.90883,268.24428 q 0,0.888 -0.296,1.552 -0.296,0.656 -0.888,1.024 -0.592,0.368 -1.471997,0.368 -0.904,0 -1.496,-0.368 -0.592,-0.368 -0.88,-1.032 -0.288,-0.664 -0.288,-1.552 0,-0.88 0.288,-1.536 0.296,-0.656 0.888,-1.024 0.592,-0.368 1.496,-0.368 0.879997,0 1.463997,0.368 0.592,0.36 0.888,1.024 0.296,0.656 0.296,1.544 z m -4.407997,0 q 0,1.024 0.424,1.616 0.424,0.592 1.328,0.592 0.911997,0 1.327997,-0.592 0.416,-0.592 0.416,-1.616 0,-1.024 -0.416,-1.608 -0.408,-0.584 -1.319997,-0.584 -0.912,0 -1.336,0.584 -0.424,0.584 -0.424,1.608 z"
           style="font-weight:500;font-family:Inter;-inkscape-font-specification:'Inter Medium'"
           id="path509" /><path
           d="m 107.77283,268.19628 q 0,1.448 -0.8,2.184 -0.792,0.728 -2.224,0.728 h -1.6 v -5.712 h 1.768 q 0.872,0 1.512,0.32 0.64,0.32 0.992,0.944 0.352,0.616 0.352,1.536 z m -0.904,0.024 q 0,-1.08 -0.528,-1.584 -0.52,-0.512 -1.48,-0.512 h -0.848 v 4.256 h 0.696 q 2.16,0 2.16,-2.16 z"
           style="font-weight:500;font-family:Inter;-inkscape-font-specification:'Inter Medium'"
           id="path511" /><path
           d="m 113.44483,269.09228 q 0,0.592 -0.248,1.072 -0.248,0.472 -0.752,0.752 -0.496,0.272 -1.264,0.272 -1.088,0 -1.656,-0.576 -0.56,-0.584 -0.56,-1.536 v -3.68 h 0.864 v 3.64 q 0,1.416 1.392,1.416 0.72,0 1.04,-0.384 0.328,-0.384 0.328,-1.04 v -3.632 h 0.856 z"
           style="font-weight:500;font-family:Inter;-inkscape-font-specification:'Inter Medium'"
           id="path513" /><path
           d="m 117.35684,266.06028 q -0.856,0 -1.336,0.592 -0.48,0.584 -0.48,1.608 0,1.016 0.448,1.6 0.448,0.584 1.36,0.584 0.368,0 0.704,-0.064 0.344,-0.072 0.696,-0.184 v 0.744 q -0.336,0.128 -0.688,0.184 -0.344,0.064 -0.816,0.064 -0.88,0 -1.456,-0.36 -0.576,-0.368 -0.864,-1.024 -0.288,-0.664 -0.288,-1.552 0,-0.864 0.312,-1.528 0.32,-0.664 0.928,-1.032 0.608,-0.376 1.488,-0.376 0.432,0 0.84,0.096 0.416,0.088 0.76,0.256 l -0.32,0.72 q -0.28,-0.128 -0.608,-0.224 -0.32,-0.104 -0.68,-0.104 z"
           style="font-weight:500;font-family:Inter;-inkscape-font-specification:'Inter Medium'"
           id="path515" /><path
           d="m 121.90083,271.10828 h -0.864 v -4.968 h -1.712 v -0.744 h 4.288 v 0.744 h -1.712 z"
           style="font-weight:500;font-family:Inter;-inkscape-font-specification:'Inter Medium'"
           id="path517" /><path
           d="m 126.24483,271.10828 h -2.216 v -0.496 l 0.68,-0.2 v -4.312 l -0.68,-0.208 v -0.496 h 2.216 v 0.496 l -0.672,0.208 v 4.312 l 0.672,0.2 z"
           style="font-weight:500;font-family:Inter;-inkscape-font-specification:'Inter Medium'"
           id="path519" /><path
           d="m 132.35683,268.24428 q 0,0.888 -0.296,1.552 -0.296,0.656 -0.888,1.024 -0.592,0.368 -1.472,0.368 -0.904,0 -1.496,-0.368 -0.592,-0.368 -0.88,-1.032 -0.288,-0.664 -0.288,-1.552 0,-0.88 0.288,-1.536 0.296,-0.656 0.888,-1.024 0.592,-0.368 1.496,-0.368 0.88,0 1.464,0.368 0.592,0.36 0.888,1.024 0.296,0.656 0.296,1.544 z m -4.408,0 q 0,1.024 0.424,1.616 0.424,0.592 1.328,0.592 0.912,0 1.328,-0.592 0.416,-0.592 0.416,-1.616 0,-1.024 -0.416,-1.608 -0.408,-0.584 -1.32,-0.584 -0.912,0 -1.336,0.584 -0.424,0.584 -0.424,1.608 z"
           style="font-weight:500;font-family:Inter;-inkscape-font-specification:'Inter Medium'"
           id="path521" /><path
           d="m 138.28483,271.10828 h -1.048 l -2.888,-4.616 h -0.032 q 0.016,0.32 0.04,0.736 0.024,0.408 0.024,0.84 v 3.04 h -0.784 v -5.712 h 1.04 l 2.88,4.592 h 0.024 q -0.008,-0.168 -0.024,-0.424 -0.008,-0.256 -0.016,-0.544 -0.008,-0.296 -0.016,-0.552 v -3.072 h 0.8 z"
           style="font-weight:500;font-family:Inter;-inkscape-font-specification:'Inter Medium'"
           id="path523" /></g></g></g></svg>
